<svg t="1724405418350" class="icon" viewBox="0 0 1024 1024" version="1.1" xmlns="http://www.w3.org/2000/svg" p-id="4402" width="24" height="24"><path d="M291.133 652.372c-69.471 0-116.477-19.774-132.361-55.68-16.771-37.898 2.78-88.722 55.053-143.108 51.212-53.283 128.034-104.13 216.314-143.176 91.75-40.587 187.245-63.865 261.998-63.865 69.462 0 116.463 19.775 132.345 55.684 16.764 37.894-2.79 88.716-55.058 143.104-51.212 53.288-128.026 104.138-216.295 143.182-91.741 40.583-187.235 63.859-261.996 63.859z m401.004-395.829c-73.41 0-167.431 22.966-257.953 63.01-87.119 38.532-162.817 88.593-213.149 140.96-24.245 25.226-41.208 49.543-50.418 72.277-9.256 22.849-10.164 42.986-2.699 59.855 14.185 32.066 57.944 49.726 123.216 49.726 73.418 0 167.438-22.965 257.951-63.005 87.106-38.531 162.798-88.594 213.13-140.966 24.242-25.226 41.205-49.544 50.416-72.279 9.257-22.848 10.168-42.984 2.707-59.851-14.186-32.066-57.939-49.727-123.201-49.727z" fill="#433F3F" p-id="4403"></path><path d="M270.603 465.821c0-169.149 112.446-273.906 231.619-273.906 129.745 0 204.708 93.224 204.708 243.152 0 17.299-0.961 34.599-3.844 47.093H348.45c4.805 115.329 74.002 192.215 177.799 192.215 50.937 0 93.224-16.338 131.667-42.287l28.832 51.898c-45.17 28.832-98.029 52.859-170.109 52.859-136.473 0-246.036-100.913-246.036-271.024z m367.13-40.365c0-111.485-49.976-170.11-134.55-170.11-76.886 0-145.123 62.47-155.694 170.11h290.244z" fill="#433F3F" p-id="4404"></path><path d="M790.219 413.638c-45.363 59.253-131.507 122.7-239.112 170.301-123.264 54.53-242.991 74.191-317.324 57.86" fill="#FFFFFF" p-id="4405"></path><path d="M290.849 652.347c-21.255 0-40.808-1.855-58.14-5.663l2.146-9.768c75.892 16.674 196.297-5.377 314.229-57.549 102.219-45.22 190.879-108.31 237.165-168.769l7.939 6.079c-22.98 30.017-56.615 61.326-97.268 90.541-42.471 30.522-90.85 57.873-143.792 81.293-93.115 41.194-188.048 63.836-262.279 63.836z" fill="#433F3F" p-id="4406"></path></svg>
